<mxfile host="app.diagrams.net" modified="2022-08-28T05:37:09.749Z" agent="5.0 (Windows NT 10.0; WOW64) AppleWebKit/537.36 (KHTML, like Gecko) Chrome/104.0.0.0 Safari/537.36" etag="-qGYEoOMQyYoNoOQsHWp" version="17.2.4" type="github">
  <diagram id="xhlEToih730gPGSlfhy6" name="Page-1">
    <mxGraphModel dx="1038" dy="588" grid="1" gridSize="10" guides="1" tooltips="1" connect="1" arrows="1" fold="1" page="1" pageScale="1" pageWidth="850" pageHeight="1100" math="0" shadow="0">
      <root>
        <mxCell id="0" />
        <mxCell id="1" parent="0" />
        <mxCell id="UzjO2-OztkGzrQGq5j1c-1" value="Height &amp;gt; 120" style="rhombus;whiteSpace=wrap;html=1;" parent="1" vertex="1">
          <mxGeometry x="360" y="430" width="80" height="80" as="geometry" />
        </mxCell>
        <mxCell id="UzjO2-OztkGzrQGq5j1c-2" value="&lt;b&gt;Start&lt;/b&gt;" style="rounded=1;whiteSpace=wrap;html=1;fillColor=#D5E8D4;" parent="1" vertex="1">
          <mxGeometry x="360" y="320" width="80" height="30" as="geometry" />
        </mxCell>
        <mxCell id="UzjO2-OztkGzrQGq5j1c-4" value="" style="endArrow=classic;html=1;rounded=0;" parent="1" edge="1">
          <mxGeometry width="50" height="50" relative="1" as="geometry">
            <mxPoint x="350" y="470" as="sourcePoint" />
            <mxPoint x="290" y="530" as="targetPoint" />
            <Array as="points">
              <mxPoint x="290" y="470" />
            </Array>
          </mxGeometry>
        </mxCell>
        <mxCell id="UzjO2-OztkGzrQGq5j1c-6" value="" style="endArrow=classic;html=1;rounded=0;" parent="1" edge="1">
          <mxGeometry width="50" height="50" relative="1" as="geometry">
            <mxPoint x="399.5" y="350" as="sourcePoint" />
            <mxPoint x="399.5" y="420" as="targetPoint" />
          </mxGeometry>
        </mxCell>
        <mxCell id="UzjO2-OztkGzrQGq5j1c-7" value="" style="endArrow=classic;html=1;rounded=0;" parent="1" edge="1">
          <mxGeometry width="50" height="50" relative="1" as="geometry">
            <mxPoint x="450" y="470" as="sourcePoint" />
            <mxPoint x="500" y="530" as="targetPoint" />
            <Array as="points">
              <mxPoint x="500" y="470" />
            </Array>
          </mxGeometry>
        </mxCell>
        <mxCell id="UzjO2-OztkGzrQGq5j1c-8" value="Can Ride" style="rounded=1;whiteSpace=wrap;html=1;" parent="1" vertex="1">
          <mxGeometry x="460" y="540" width="80" height="40" as="geometry" />
        </mxCell>
        <mxCell id="UzjO2-OztkGzrQGq5j1c-9" value="Age" style="rhombus;whiteSpace=wrap;html=1;" parent="1" vertex="1">
          <mxGeometry x="460" y="640" width="80" height="80" as="geometry" />
        </mxCell>
        <mxCell id="UzjO2-OztkGzrQGq5j1c-10" value="" style="endArrow=classic;html=1;rounded=0;" parent="1" edge="1">
          <mxGeometry width="50" height="50" relative="1" as="geometry">
            <mxPoint x="455" y="680" as="sourcePoint" />
            <mxPoint x="360" y="760" as="targetPoint" />
            <Array as="points">
              <mxPoint x="360" y="680" />
            </Array>
          </mxGeometry>
        </mxCell>
        <mxCell id="UzjO2-OztkGzrQGq5j1c-11" value="" style="endArrow=classic;html=1;rounded=0;" parent="1" edge="1">
          <mxGeometry width="50" height="50" relative="1" as="geometry">
            <mxPoint x="500" y="580" as="sourcePoint" />
            <mxPoint x="499.5" y="630" as="targetPoint" />
          </mxGeometry>
        </mxCell>
        <mxCell id="UzjO2-OztkGzrQGq5j1c-12" value="" style="endArrow=classic;html=1;rounded=0;" parent="1" edge="1">
          <mxGeometry width="50" height="50" relative="1" as="geometry">
            <mxPoint x="550" y="680" as="sourcePoint" />
            <mxPoint x="640" y="760" as="targetPoint" />
            <Array as="points">
              <mxPoint x="640" y="680" />
            </Array>
          </mxGeometry>
        </mxCell>
        <mxCell id="UzjO2-OztkGzrQGq5j1c-13" value="" style="endArrow=classic;html=1;rounded=0;" parent="1" edge="1">
          <mxGeometry width="50" height="50" relative="1" as="geometry">
            <mxPoint x="500" y="720" as="sourcePoint" />
            <mxPoint x="500" y="760" as="targetPoint" />
          </mxGeometry>
        </mxCell>
        <mxCell id="UzjO2-OztkGzrQGq5j1c-14" value="₹ 100" style="rounded=0;whiteSpace=wrap;html=1;" parent="1" vertex="1">
          <mxGeometry x="330" y="770" width="60" height="30" as="geometry" />
        </mxCell>
        <mxCell id="UzjO2-OztkGzrQGq5j1c-15" value="₹ 150" style="rounded=0;whiteSpace=wrap;html=1;" parent="1" vertex="1">
          <mxGeometry x="470" y="770" width="60" height="30" as="geometry" />
        </mxCell>
        <mxCell id="UzjO2-OztkGzrQGq5j1c-16" value="₹ 200&lt;br&gt;" style="rounded=0;whiteSpace=wrap;html=1;" parent="1" vertex="1">
          <mxGeometry x="610" y="770" width="60" height="30" as="geometry" />
        </mxCell>
        <mxCell id="UzjO2-OztkGzrQGq5j1c-17" value="Yes" style="text;html=1;align=center;verticalAlign=middle;resizable=0;points=[];autosize=1;strokeColor=none;fillColor=none;" parent="1" vertex="1">
          <mxGeometry x="460" y="450" width="40" height="20" as="geometry" />
        </mxCell>
        <mxCell id="UzjO2-OztkGzrQGq5j1c-18" value="No" style="text;html=1;align=center;verticalAlign=middle;resizable=0;points=[];autosize=1;strokeColor=none;fillColor=none;" parent="1" vertex="1">
          <mxGeometry x="295" y="450" width="30" height="20" as="geometry" />
        </mxCell>
        <mxCell id="UzjO2-OztkGzrQGq5j1c-19" value="Can&#39;t Ride" style="rounded=1;whiteSpace=wrap;html=1;" parent="1" vertex="1">
          <mxGeometry x="245" y="540" width="80" height="40" as="geometry" />
        </mxCell>
        <mxCell id="svJubLM9QluJVl3arDPF-1" value="Over 18" style="text;html=1;align=center;verticalAlign=middle;resizable=0;points=[];autosize=1;strokeColor=none;fillColor=none;" vertex="1" parent="1">
          <mxGeometry x="560" y="650" width="60" height="20" as="geometry" />
        </mxCell>
        <mxCell id="svJubLM9QluJVl3arDPF-2" value="Under 12" style="text;html=1;align=center;verticalAlign=middle;resizable=0;points=[];autosize=1;strokeColor=none;fillColor=none;" vertex="1" parent="1">
          <mxGeometry x="380" y="650" width="60" height="20" as="geometry" />
        </mxCell>
        <mxCell id="svJubLM9QluJVl3arDPF-3" value="&lt;font style=&quot;font-size: 18px&quot;&gt;RollerCost Ride Game&lt;/font&gt;" style="shape=process;whiteSpace=wrap;html=1;backgroundOutline=1;fillColor=#D5E8D4;" vertex="1" parent="1">
          <mxGeometry x="245" y="200" width="330" height="60" as="geometry" />
        </mxCell>
      </root>
    </mxGraphModel>
  </diagram>
</mxfile>
